<svg xmlns="http://www.w3.org/2000/svg" viewBox="0 0 512 512" fill="none">
  <defs>
    <linearGradient id="bg" x1="0" y1="0" x2="0" y2="512" gradientUnits="userSpaceOnUse">
      <stop offset="0%" stop-color="#ff8a00"/>
      <stop offset="100%" stop-color="#c86000"/>
    </linearGradient>
  </defs>
  <!-- Rounded square background -->
  <rect width="512" height="512" rx="112" fill="url(#bg)"/>
  <!-- Book icon (open book, white) -->
  <path d="M160 200 C160 200 256 180 256 180 C256 180 352 200 352 200 L352 360 C352 360 256 340 256 340 C256 340 160 360 160 360 Z" fill="white" opacity="0.95"/>
  <!-- Book spine -->
  <line x1="256" y1="180" x2="256" y2="340" stroke="rgba(200,96,0,0.3)" stroke-width="3"/>
  <!-- Page fold left -->
  <path d="M160 200 C200 190 240 184 256 180 L256 340 C240 344 200 350 160 360 Z" fill="white"/>
  <!-- Page fold right -->
  <path d="M352 200 C312 190 272 184 256 180 L256 340 C272 344 312 350 352 360 Z" fill="rgba(255,255,255,0.85)"/>
</svg>
